<?xml version="1.0" standalone="no"?>
<!DOCTYPE svg PUBLIC "-//W3C//DTD SVG 20010904//EN"
 "http://www.w3.org/TR/2001/REC-SVG-20010904/DTD/svg10.dtd">
<svg version="1.0" xmlns="http://www.w3.org/2000/svg"
 width="384.000000pt" height="384.000000pt" viewBox="0 0 384.000000 384.000000"
 preserveAspectRatio="xMidYMid meet">
<metadata>
Created by potrace 1.10, written by Peter Selinger 2001-2011
</metadata>
<g transform="translate(0.000000,384.000000) scale(0.100000,-0.100000)"
fill="#ffffff" stroke="none">
<path d="M615 3339 l-35 -31 0 -119 c0 -109 2 -120 22 -138 12 -12 30 -23 40
-27 27 -8 22 -28 -12 -41 -58 -22 -56 -82 4 -111 33 -17 32 -22 -7 -47 -51
-32 -48 -99 5 -107 35 -5 32 -26 -5 -48 -19 -11 -37 -29 -39 -38 -7 -25 9 -62
26 -62 8 0 22 -7 31 -16 12 -12 13 -19 4 -30 -6 -8 -17 -14 -25 -14 -19 0 -43
-38 -37 -61 3 -11 23 -31 44 -45 l38 -24 3 -421 3 -421 32 -28 c18 -16 49 -34
70 -39 53 -15 2213 -15 2266 0 21 5 52 23 70 39 l32 28 3 421 3 421 37 19 c21
11 44 27 51 35 17 20 6 65 -17 72 -69 22 -77 47 -21 59 32 7 56 43 46 69 -3 8
-24 24 -47 36 -48 24 -51 38 -11 46 73 15 79 80 11 110 -45 20 -47 34 -6 45
31 9 55 35 56 61 0 20 -46 58 -71 58 -30 0 -22 26 11 40 52 22 60 43 60 163
l0 109 -34 34 -34 34 -1266 0 -1265 0 -36 -31z m1235 -334 c0 -13 -66 -15
-530 -15 -291 0 -530 4 -530 8 0 5 3 12 7 15 3 4 242 7 530 7 458 0 523 -2
523 -15z m1178 -2 c3 -10 -106 -13 -522 -13 -288 0 -527 4 -530 9 -3 4 -3 11
1 15 4 3 240 5 526 4 406 -2 521 -6 525 -15z m-1183 -153 c0 -13 -65 -15 -515
-17 -283 -2 -521 1 -529 6 -44 28 8 31 522 29 456 -3 522 -5 522 -18z m1181 9
c3 -6 0 -15 -7 -20 -8 -5 -242 -9 -520 -9 -412 0 -509 3 -518 13 -6 8 -8 17
-4 20 12 13 1041 8 1049 -4z m-1828 -161 c3 -16 -14 -17 -190 -20 -135 -2
-197 0 -207 9 -33 28 1 33 197 31 176 -3 197 -5 200 -20z m145 8 c3 -12 -30
-32 -39 -24 -11 12 5 40 21 36 9 -2 17 -7 18 -12z m503 3 c3 -6 2 -15 -3 -20
-10 -10 -341 -14 -350 -5 -3 3 -3 12 0 21 5 13 32 15 176 15 112 0 172 -4 177
-11z m1180 0 c3 -6 2 -15 -3 -20 -10 -10 -1032 -13 -1041 -4 -3 2 -2 11 1 20
6 13 66 15 521 15 360 0 517 -3 522 -11z m-2196 -169 c0 -11 -6 -20 -13 -20
-19 0 -27 10 -20 26 8 21 33 17 33 -6z m388 8 c7 -7 12 -16 12 -20 0 -4 -63
-8 -140 -8 -110 0 -140 3 -140 13 0 8 3 17 7 20 12 13 248 8 261 -5z m162 -8
c0 -11 -6 -20 -14 -20 -18 0 -29 16 -21 30 11 18 35 11 35 -10z m463 6 c3 -8
3 -17 0 -20 -9 -9 -283 -7 -283 2 0 26 30 32 151 32 100 0 128 -3 132 -14z
m1177 -5 c0 -11 -4 -21 -10 -23 -5 -1 -239 -2 -520 0 -501 2 -510 3 -510 22 0
20 8 20 520 20 506 0 520 -1 520 -19z m-2192 -190 c2 -24 0 -51 -3 -60 -6 -14
-9 -13 -26 8 -21 26 -25 71 -7 89 20 20 33 8 36 -37z m422 34 c19 -23 7 -103
-19 -129 -20 -19 -32 -21 -140 -21 -113 0 -121 1 -145 24 -21 20 -26 34 -26
76 0 28 3 55 7 58 3 4 75 7 158 7 124 0 155 -3 165 -15z m150 -5 c10 -18 23
-20 198 -22 l187 -3 5 -38 c4 -28 12 -41 30 -50 l25 -13 0 -334 0 -335 -516
-3 c-443 -2 -518 0 -529 12 -8 11 -11 73 -11 217 l0 203 52 52 c36 36 50 58
49 75 -4 39 -1 42 24 25 19 -12 56 -16 169 -17 134 -2 148 0 180 20 51 31 78
80 84 154 7 75 30 100 53 57z m1625 10 c12 -19 6 -782 -6 -796 -16 -19 -1018
-21 -1037 -2 -9 9 -12 96 -12 329 0 275 2 320 16 333 8 9 21 16 29 16 30 0 34
74 5 92 -58 36 -35 38 489 38 322 0 512 -4 516 -10z m-1195 -10 c0 -5 -7 -10
-15 -10 -8 0 -15 5 -15 10 0 6 7 10 15 10 8 0 15 -4 15 -10z m-970 -161 c12
-16 21 -31 19 -33 -17 -10 -91 -22 -95 -14 -9 14 25 78 41 78 7 0 23 -14 35
-31z"/>
<path d="M1406 2281 c-29 -32 -14 -63 43 -88 27 -13 58 -23 69 -23 22 0 52 24
52 41 0 16 -42 50 -80 64 -19 7 -42 15 -51 19 -9 4 -22 -1 -33 -13z"/>
<path d="M1322 2168 c-28 -28 -10 -55 111 -176 120 -120 148 -137 175 -110 27
27 9 54 -110 175 -121 122 -148 139 -176 111z"/>
<path d="M938 2098 c-22 -19 -58 -111 -52 -135 6 -23 36 -35 61 -26 15 6 63
105 63 131 0 16 -28 41 -46 42 -5 0 -17 -6 -26 -12z"/>
<path d="M1208 2096 c-24 -18 -23 -33 6 -98 26 -58 41 -70 74 -61 30 7 33 41
10 97 -30 73 -54 89 -90 62z"/>
<path d="M1066 2078 c-13 -18 -16 -53 -16 -175 0 -176 6 -203 49 -203 17 0 31
6 35 16 12 31 7 359 -6 372 -19 19 -45 14 -62 -10z"/>
<path d="M2840 1311 c-85 -18 -152 -82 -189 -177 -17 -46 -21 -77 -21 -183 0
-182 35 -271 130 -336 43 -29 49 -30 155 -30 102 0 113 2 151 27 52 34 96 89
120 153 27 72 27 298 0 370 -25 66 -76 128 -126 154 -46 24 -161 35 -220 22z
m151 -148 c38 -41 54 -106 54 -213 0 -106 -15 -171 -50 -214 -19 -24 -30 -28
-74 -29 -42 -1 -56 4 -77 24 -71 71 -73 352 -3 428 24 27 35 31 77 31 40 0 53
-5 73 -27z"/>
<path d="M856 1281 c-22 -41 -145 -402 -192 -561 -9 -30 -20 -68 -25 -84 -5
-17 -5 -34 -1 -38 5 -5 42 -8 83 -6 l74 3 20 70 c11 39 24 76 28 83 6 8 37 12
96 12 104 0 115 -8 131 -90 6 -29 15 -59 21 -67 13 -15 154 -19 163 -4 6 10
-13 87 -68 271 -9 30 -21 69 -26 85 -23 78 -101 299 -115 325 -15 29 -17 30
-95 30 -77 0 -80 -1 -94 -29z m110 -192 c6 -19 19 -57 28 -86 10 -28 16 -68
14 -89 l-3 -39 -53 -1 c-83 -1 -87 6 -61 101 12 44 24 91 26 105 11 62 30 66
49 9z"/>
<path d="M1330 1284 c-13 -34 -13 -407 1 -497 13 -85 42 -135 101 -174 40 -27
47 -28 167 -28 112 0 131 3 168 23 47 25 85 76 103 137 7 26 10 128 8 300 l-3
260 -54 3 c-30 2 -65 1 -78 -3 l-23 -5 0 -238 c0 -297 -10 -342 -82 -356 -57
-11 -106 3 -128 39 -19 30 -20 50 -20 293 0 295 8 272 -91 272 -55 0 -60 -2
-69 -26z"/>
<path d="M1977 1303 c-4 -3 -7 -30 -7 -60 l0 -53 94 0 c66 0 97 -4 105 -13 7
-9 12 -109 13 -298 l3 -284 75 0 75 0 3 284 c1 185 6 289 13 297 7 9 44 14
107 16 l97 3 3 37 c2 20 -2 46 -8 58 -10 19 -19 20 -289 20 -153 0 -281 -3
-284 -7z"/>
</g>
</svg>
